<svg width="20" height="20" viewBox="0 0 20 20" fill="none" xmlns="http://www.w3.org/2000/svg">
<g clip-path="url(#clip0_7_2)">
<rect width="20" height="20" fill="white"/>
<path d="M6.24707 9.66895C5.88932 9.0446 5.45068 8.73242 4.93115 8.73242C4.54378 8.73242 4.22477 8.85889 3.97412 9.11182C3.72575 9.36247 3.60156 9.68148 3.60156 10.0688C3.60156 10.6431 3.87728 11.0578 4.42871 11.313C4.47428 10.7638 4.71696 10.3696 5.15674 10.1304C5.37093 10.0096 5.60221 9.94922 5.85059 9.94922C6.09212 9.94922 6.29264 10.0073 6.45215 10.1235C6.6276 10.2489 6.71533 10.4289 6.71533 10.6636C6.71533 10.8117 6.62533 11.0122 6.44531 11.2651C6.0944 11.7459 5.58968 11.9863 4.93115 11.9863C4.36605 11.9863 3.90462 11.8086 3.54688 11.4531C3.19141 11.0954 3.01367 10.634 3.01367 10.0688C3.01367 9.50374 3.19141 9.0446 3.54688 8.69141C3.90462 8.33594 4.36605 8.1582 4.93115 8.1582C5.67855 8.1582 6.28125 8.57064 6.73926 9.39551L6.24707 9.66895ZM5.79248 10.5098C5.53044 10.5098 5.31283 10.5941 5.13965 10.7627C4.96875 10.929 4.87874 11.141 4.86963 11.3984H4.93115C5.34814 11.3984 5.6888 11.256 5.95312 10.9712C5.99186 10.9006 6.04313 10.8231 6.10693 10.7388C6.11605 10.7023 6.12061 10.675 6.12061 10.6567C6.12061 10.5588 6.01123 10.5098 5.79248 10.5098ZM9.10791 10.4517V10.4243H9.0498L9.06348 9.85693H9.40869C9.91227 9.85693 10.1891 9.67578 10.2393 9.31348C10.18 8.93522 9.76302 8.74609 8.98828 8.74609C8.44141 8.74609 8.08366 8.90674 7.91504 9.22803C7.89681 9.25993 7.8877 9.28841 7.8877 9.31348C7.8877 9.36816 7.93213 9.39551 8.021 9.39551H8.14062L8.09961 9.92871H8.021C7.5402 9.92871 7.2998 9.70426 7.2998 9.25537C7.2998 8.868 7.49349 8.57861 7.88086 8.38721C8.18392 8.2391 8.55306 8.16504 8.98828 8.16504C9.74935 8.16504 10.2951 8.3724 10.6255 8.78711C11.0083 8.38151 11.4823 8.17871 12.0474 8.17871C12.494 8.17871 12.9019 8.32796 13.271 8.62646C13.729 9.00472 13.958 9.49463 13.958 10.0962C13.958 10.5542 13.8065 10.9644 13.5034 11.3267C13.1206 11.7892 12.6353 12.0205 12.0474 12.0205C11.8332 12.0205 11.6224 11.9875 11.415 11.9214C11.3239 11.8986 11.2783 11.8223 11.2783 11.6924C11.2783 11.4486 11.2852 11.3062 11.2988 11.2651C11.3672 11.0509 11.4481 10.904 11.5415 10.8242C11.8651 10.5439 12.1738 10.4038 12.4678 10.4038C12.7799 10.4038 13.0386 10.4881 13.2437 10.6567C13.3325 10.4881 13.377 10.3013 13.377 10.0962C13.377 9.70882 13.2505 9.38753 12.9976 9.13232C12.7469 8.87484 12.4302 8.74609 12.0474 8.74609C11.4823 8.74609 11.071 9.00016 10.8135 9.5083C10.7633 9.74072 10.6357 9.94352 10.4307 10.1167C10.7428 10.3218 10.883 10.6021 10.8511 10.9575C10.7804 11.6525 10.1595 12 8.98828 12C8.61914 12 8.2762 11.9373 7.95947 11.812C7.54248 11.6479 7.32487 11.4098 7.30664 11.0977L7.2998 10.9165L7.87402 10.7832C7.87858 10.8812 7.89225 10.9928 7.91504 11.1182C7.96289 11.207 8.12923 11.2845 8.41406 11.3506C8.62826 11.3962 8.81966 11.4189 8.98828 11.4189C9.80859 11.4189 10.2336 11.2435 10.2632 10.8926C10.2814 10.5895 9.97266 10.4357 9.33691 10.4312C9.28678 10.4266 9.21045 10.4334 9.10791 10.4517ZM12.5088 10.8311C12.3174 10.8311 12.1351 10.9427 11.9619 11.166C11.93 11.2048 11.8947 11.2936 11.856 11.4326C11.9312 11.4372 11.995 11.4395 12.0474 11.4395C12.3687 11.4395 12.7002 11.2856 13.042 10.978C12.9144 10.88 12.7367 10.8311 12.5088 10.8311ZM15.1235 9.83643C14.9048 9.83643 14.7259 9.76693 14.5869 9.62793C14.4502 9.48665 14.3818 9.30664 14.3818 9.08789C14.3818 8.87826 14.4513 8.7028 14.5903 8.56152C14.7316 8.41797 14.9093 8.34619 15.1235 8.34619C15.3332 8.34619 15.5075 8.41797 15.6465 8.56152C15.7878 8.7028 15.8584 8.87826 15.8584 9.08789C15.8584 9.30664 15.7889 9.48665 15.6499 9.62793C15.5132 9.76693 15.3377 9.83643 15.1235 9.83643ZM15.1235 11.8599C14.9048 11.8599 14.7259 11.7915 14.5869 11.6548C14.4502 11.5158 14.3818 11.3369 14.3818 11.1182C14.3818 10.9085 14.4513 10.7319 14.5903 10.5884C14.7316 10.4425 14.9093 10.3696 15.1235 10.3696C15.3377 10.3696 15.5132 10.4403 15.6499 10.5815C15.7889 10.7205 15.8584 10.8994 15.8584 11.1182C15.8584 11.3369 15.7889 11.5158 15.6499 11.6548C15.5132 11.7915 15.3377 11.8599 15.1235 11.8599ZM15.1235 8.84863C14.9731 8.84863 14.8979 8.92839 14.8979 9.08789C14.8979 9.23828 14.9731 9.31348 15.1235 9.31348C15.283 9.31348 15.3628 9.23828 15.3628 9.08789C15.3628 8.92839 15.283 8.84863 15.1235 8.84863ZM15.1235 10.8857C14.9731 10.8857 14.8979 10.9632 14.8979 11.1182C14.8979 11.2777 14.9731 11.3574 15.1235 11.3574C15.283 11.3574 15.3628 11.2777 15.3628 11.1182C15.3628 10.9632 15.283 10.8857 15.1235 10.8857Z" fill="black"/>
</g>
<defs>
<clipPath id="clip0_7_2">
<rect width="20" height="20" fill="white"/>
</clipPath>
</defs>
</svg>
